# This file uses centimeters as units for non-parametric coordinates.

mtllib stage.mtl
g default
v -7.820120 -1.530211 6.375601
v 7.820120 -1.530211 6.375601
v -7.820120 1.530211 6.375601
v 7.820120 1.530211 6.375601
v -7.820120 1.530211 -4.804381
v 7.820120 1.530211 -4.804381
v -7.820120 -1.530211 -4.804381
v 7.820120 -1.530211 -4.804381
v -8.068619 -1.530211 6.553234
v 8.068619 -1.530211 6.553234
v 8.068619 1.530211 6.553234
v -8.068619 1.530211 6.553234
v 8.317117 -1.530211 -4.804381
v 8.317117 1.530211 -4.804381
v -8.317117 -1.530211 -4.804381
v -8.317117 1.530211 -4.804381
v -7.820120 1.692015 6.375601
v 7.820120 1.692015 6.375601
v -8.068619 1.692015 6.553234
v 8.068619 1.692015 6.553234
v 7.820120 1.692015 -4.804381
v 8.317117 1.692015 -4.804381
v -7.820120 1.692015 -4.804381
v -8.317117 1.692015 -4.804381
vt 0.375000 0.000000
vt 0.625000 0.000000
vt 0.375000 0.250000
vt 0.625000 0.250000
vt 0.375000 0.500000
vt 0.625000 0.500000
vt 0.375000 0.750000
vt 0.625000 0.750000
vt 0.375000 1.000000
vt 0.625000 1.000000
vt 0.875000 0.000000
vt 0.875000 0.250000
vt 0.125000 0.000000
vt 0.125000 0.250000
vt 0.375000 0.000000
vt 0.625000 0.000000
vt 0.625000 0.250000
vt 0.375000 0.250000
vt 0.875000 0.000000
vt 0.875000 0.250000
vt 0.125000 0.000000
vt 0.125000 0.250000
vt 0.625000 0.250000
vt 0.375000 0.250000
vt 0.375000 0.250000
vt 0.625000 0.250000
vt 0.875000 0.250000
vt 0.875000 0.250000
vt 0.125000 0.250000
vt 0.125000 0.250000
vn 0.000000 0.000000 1.000000
vn 0.000000 0.000000 1.000000
vn 0.000000 0.000000 1.000000
vn 0.000000 0.000000 1.000000
vn 0.000000 1.000000 0.000000
vn 0.000000 1.000000 0.000000
vn 0.000000 1.000000 0.000000
vn 0.000000 1.000000 0.000000
vn 0.000000 0.000000 -1.000000
vn 0.000000 0.000000 -1.000000
vn 0.000000 0.000000 -1.000000
vn 0.000000 0.000000 -1.000000
vn 0.000000 -1.000000 0.000000
vn 0.000000 -1.000000 0.000000
vn 0.000000 -1.000000 -0.000000
vn 0.000000 -1.000000 -0.000000
vn 0.999761 0.000000 0.021874
vn 0.999761 0.000000 0.021874
vn 0.999761 0.000000 0.021874
vn 0.999761 0.000000 0.021874
vn -0.999761 0.000000 0.021874
vn -0.999761 0.000000 0.021874
vn -0.999761 0.000000 0.021874
vn -0.999761 0.000000 0.021874
vn 0.000000 -1.000000 -0.000000
vn 0.000000 -1.000000 -0.000000
vn 0.000000 1.000000 0.000000
vn 0.000000 1.000000 0.000000
vn 0.000000 1.000000 0.000000
vn 0.000000 1.000000 0.000000
vn 0.000000 -1.000000 0.000000
vn 0.000000 0.000000 -1.000000
vn 0.000000 0.000000 -1.000000
vn 0.000000 1.000000 0.000000
vn 0.000000 1.000000 0.000000
vn 0.000000 -1.000000 0.000000
vn 0.000000 1.000000 0.000000
vn 0.000000 1.000000 0.000000
vn 0.000000 0.000000 -1.000000
vn 0.000000 0.000000 -1.000000
vn 0.000000 0.000000 -1.000000
vn 0.000000 0.000000 -1.000000
vn 0.000000 0.000000 -1.000000
vn 0.000000 0.000000 -1.000000
vn 0.000000 0.000000 1.000000
vn 0.000000 0.000000 1.000000
vn -1.000000 0.000000 0.000000
vn -1.000000 0.000000 0.000000
vn -1.000000 0.000000 0.000000
vn -1.000000 0.000000 0.000000
vn 0.999761 0.000000 0.021874
vn 0.999761 0.000000 0.021874
vn 0.000000 0.000000 -1.000000
vn 0.000000 0.000000 -1.000000
vn 1.000000 0.000000 0.000000
vn 1.000000 0.000000 0.000000
vn 1.000000 0.000000 0.000000
vn 1.000000 0.000000 0.000000
vn 0.000000 0.000000 -1.000000
vn 0.000000 0.000000 -1.000000
vn -0.999761 0.000000 0.021874
vn -0.999761 0.000000 0.021874
s 1
g base
usemtl initialShadingGroup
f 9/15/1 10/16/2 11/17/3 12/18/4
s off
f 3/3/5 4/4/6 6/6/7 5/5/8
s 2
f 5/5/9 6/6/10 8/8/11 7/7/12
s 3
f 7/7/13 8/8/14 2/10/15 1/9/16
s 4
f 10/16/17 13/19/18 14/20/19 11/17/20
s 5
f 15/21/21 9/15/22 12/18/23 16/22/24
s 3
f 1/1/16 2/2/15 10/16/25 9/15/26
s 6
f 18/23/27 17/24/28 19/25/29 20/26/30
s 3
f 2/2/15 8/11/14 13/19/31 10/16/25
s 2
f 8/11/11 6/12/10 14/20/32 13/19/33
s 6
f 21/27/34 18/23/27 20/26/30 22/28/35
s 3
f 7/13/13 1/1/16 9/15/26 15/21/36
s 6
f 17/24/28 23/29/37 24/30/38 19/25/29
s 2
f 5/14/9 7/13/12 15/21/39 16/22/40
s off
f 4/4/41 3/3/42 17/24/43 18/23/44
s 1
f 12/18/4 11/17/3 20/26/45 19/25/46
s off
f 6/12/47 4/4/48 18/23/49 21/27/50
s 4
f 11/17/20 14/20/19 22/28/51 20/26/52
s 2
f 14/20/32 6/12/10 21/27/53 22/28/54
s off
f 3/3/55 5/14/56 23/29/57 17/24/58
s 2
f 5/14/9 16/22/40 24/30/59 23/29/60
s 5
f 16/22/24 12/18/23 19/25/61 24/30/62
g default
v -22.388103 -2.498234 -4.131718
v -0.153677 -2.498234 -4.131718
v -22.388103 7.078671 -4.131718
v -0.153677 7.078671 -4.131718
v -22.388103 7.078671 -5.060829
v -0.153677 7.078671 -5.060829
v -22.388103 -2.498234 -5.060829
v -0.153677 -2.498234 -5.060829
vt 0.375000 0.000000
vt 0.625000 0.000000
vt 0.375000 0.250000
vt 0.625000 0.250000
vt 0.375000 0.500000
vt 0.625000 0.500000
vt 0.375000 0.750000
vt 0.625000 0.750000
vt 0.375000 1.000000
vt 0.625000 1.000000
vt 0.875000 0.000000
vt 0.875000 0.250000
vt 0.125000 0.000000
vt 0.125000 0.250000
vn 0.000000 0.000000 1.000000
vn 0.000000 0.000000 1.000000
vn 0.000000 0.000000 1.000000
vn 0.000000 0.000000 1.000000
vn 0.000000 1.000000 0.000000
vn 0.000000 1.000000 0.000000
vn 0.000000 1.000000 0.000000
vn 0.000000 1.000000 0.000000
vn 0.000000 0.000000 -1.000000
vn 0.000000 0.000000 -1.000000
vn 0.000000 0.000000 -1.000000
vn 0.000000 0.000000 -1.000000
vn 0.000000 -1.000000 0.000000
vn 0.000000 -1.000000 0.000000
vn 0.000000 -1.000000 0.000000
vn 0.000000 -1.000000 0.000000
vn 1.000000 0.000000 0.000000
vn 1.000000 0.000000 0.000000
vn 1.000000 0.000000 0.000000
vn 1.000000 0.000000 0.000000
vn -1.000000 0.000000 0.000000
vn -1.000000 0.000000 0.000000
vn -1.000000 0.000000 0.000000
vn -1.000000 0.000000 0.000000
s off
g back_wall_1
usemtl initialShadingGroup
f 25/31/63 26/32/64 28/34/65 27/33/66
f 27/33/67 28/34/68 30/36/69 29/35/70
f 29/35/71 30/36/72 32/38/73 31/37/74
f 31/37/75 32/38/76 26/40/77 25/39/78
f 26/32/79 32/41/80 30/42/81 28/34/82
f 31/43/83 25/31/84 27/33/85 29/44/86
g default
v -0.182426 0.009151 -4.131718
v 22.052000 0.009151 -4.131718
v -0.182426 9.586056 -4.131718
v 22.052000 9.586056 -4.131718
v -0.182426 9.586056 -5.060829
v 22.052000 9.586056 -5.060829
v -0.182426 0.009151 -5.060829
v 22.052000 0.009151 -5.060829
vt 0.375000 0.000000
vt 0.625000 0.000000
vt 0.375000 0.250000
vt 0.625000 0.250000
vt 0.375000 0.500000
vt 0.625000 0.500000
vt 0.375000 0.750000
vt 0.625000 0.750000
vt 0.375000 1.000000
vt 0.625000 1.000000
vt 0.875000 0.000000
vt 0.875000 0.250000
vt 0.125000 0.000000
vt 0.125000 0.250000
vn 0.000000 0.000000 1.000000
vn 0.000000 0.000000 1.000000
vn 0.000000 0.000000 1.000000
vn 0.000000 0.000000 1.000000
vn 0.000000 1.000000 0.000000
vn 0.000000 1.000000 0.000000
vn 0.000000 1.000000 0.000000
vn 0.000000 1.000000 0.000000
vn 0.000000 0.000000 -1.000000
vn 0.000000 0.000000 -1.000000
vn 0.000000 0.000000 -1.000000
vn 0.000000 0.000000 -1.000000
vn 0.000000 -1.000000 0.000000
vn 0.000000 -1.000000 0.000000
vn 0.000000 -1.000000 0.000000
vn 0.000000 -1.000000 0.000000
vn 1.000000 0.000000 0.000000
vn 1.000000 0.000000 0.000000
vn 1.000000 0.000000 0.000000
vn 1.000000 0.000000 0.000000
vn -1.000000 0.000000 0.000000
vn -1.000000 0.000000 0.000000
vn -1.000000 0.000000 0.000000
vn -1.000000 0.000000 0.000000
s off
g back_wall_2
usemtl initialShadingGroup
f 33/45/87 34/46/88 36/48/89 35/47/90
f 35/47/91 36/48/92 38/50/93 37/49/94
f 37/49/95 38/50/96 40/52/97 39/51/98
f 39/51/99 40/52/100 34/54/101 33/53/102
f 34/46/103 40/55/104 38/56/105 36/48/106
f 39/57/107 33/45/108 35/47/109 37/58/110
